# xmcd
#
# Track frame offsets:
#	150
#	13761
#	30086
#	39073
#	53368
#	66051
#	79089
#	91795
#	112499
#	125424
#	136588
#	147892
#	166384
#	179427
#	184451
#	196151
#	209495
#	224873
#
# Disc length: 3178 seconds
#
# Revision: 1
# Processed by: cddbd v1.5.2PL0 Copyright (c) Steve Scherf et al.
# Submitted via: EasyCDDAExtractor 16.0.6.1
#
DISCID=fa0c6812
DTITLE=Varios - C-081 Transit Music Country Internet Nº 5
DYEAR=1998
DGENRE=country
TTITLE0=Kentucky Thunder - 18 Bottles Of Beer
TTITLE1=Stu Kari and Lynn Huggens - Hall Hat No Cattle
TTITLE2=Patsy Cline - Back In Baby Arms
TTITLE3=Brooks Dunn - Boot Scootin' Boogie
TTITLE4=Lisa Dodd - Brand New Day
TTITLE5=Honky Tonk Jukebox Band - Gave Her The Ring
TTITLE6=Lisa Dodd - I Got The Blues Again
TTITLE7=The Juleps - Hello Love
TTITLE8=Hank Williams - Hey Good Lookin'
TTITLE9=Loretta Lynn - I'm A Honky Tonky Girl
TTITLE10=Tanya Tucker - It's A Little Too Late
TTITLE11=Five Weel Drive - Mister
TTITLE12=Gart Brooks - Much Too Young
TTITLE13=The Slipcowers - Showoff
TTITLE14=Travis Tritt - The Whiskey Ain't Workin'
TTITLE15=Travis Tritt - T.R.O.U.B.L.E.
TTITLE16=Gart Brooks - Two Piña Coladas
TTITLE17=Wynonna - When Love Starts Talkin'
EXTD=
EXTT0=
EXTT1=
EXTT2=
EXTT3=
EXTT4=
EXTT5=
EXTT6=
EXTT7=
EXTT8=
EXTT9=
EXTT10=
EXTT11=
EXTT12=
EXTT13=
EXTT14=
EXTT15=
EXTT16=
EXTT17=
PLAYORDER=
